<svg width="1013" height="710" viewBox="0 0 1013 710" fill="none" xmlns="http://www.w3.org/2000/svg">
<path d="M636.633 240.895L771.462 375.724C790.988 395.25 822.647 395.25 842.173 375.724L977.002 240.895C996.528 221.369 996.528 189.711 977.002 170.184L842.173 35.3553C822.647 15.8291 790.988 15.8291 771.462 35.3553L636.633 170.184C617.107 189.711 617.107 221.369 636.633 240.895Z" fill="#D2A517" stroke="#D2A517" stroke-width="12.0882" stroke-linejoin="round"/>
<path d="M335.995 539.511L470.824 674.34C490.351 693.867 522.009 693.867 541.535 674.34L676.364 539.511C695.89 519.985 695.89 488.327 676.364 468.801L541.535 333.972C522.009 314.446 490.351 314.446 470.824 333.972L335.995 468.801C316.469 488.327 316.469 519.985 335.995 539.511Z" fill="#00B8D4" stroke="#00B8D4" stroke-width="12.0882" stroke-linejoin="round"/>
<path d="M35.3554 240.895L170.184 375.724C189.711 395.25 221.369 395.25 240.895 375.724L375.724 240.895C395.25 221.369 395.25 189.711 375.724 170.184L240.895 35.3553C221.369 15.8291 189.711 15.8291 170.184 35.3553L35.3553 170.184C15.8291 189.711 15.8291 221.369 35.3554 240.895Z" fill="#844DDC" stroke="#844DDC" stroke-width="12.0882" stroke-linejoin="round"/>
<path opacity="0.9" d="M335.995 240.895L470.824 375.724C490.351 395.25 522.009 395.25 541.535 375.724L676.364 240.895C695.89 221.369 695.89 189.711 676.364 170.184L541.535 35.3553C522.009 15.8291 490.351 15.8291 470.824 35.3553L335.995 170.184C316.469 189.711 316.469 221.369 335.995 240.895Z" fill="#004BA3" stroke="#004BA3" stroke-width="12.0882" stroke-linejoin="round"/>
</svg>
